#!OML:ASF E:\Mandelcareful walks\Project 1\Capture day 1\Session 1\Subject1.ASF
:FULLY-SPECIFIED
:DEGREES
456
root -0.218721 15.8992 2.5038 -395.187 98.3031 -403.573
lowerback 33.1571 0.259066 -0.568296
upperback 7.2297 0.977369 -0.275041
thorax -9.00028 0.826879 -0.403098
lowerneck -25.0347 8.16446 4.02407
upperneck 25.0791 14.5262 -12.6021
head 14.1208 5.12733 -2.73949
rclavicle 1.11319e-014 8.74653e-015
rhumerus -15.8305 4.35625 -78.7833
rradius 50.8637
rwrist -19.0862
rhand -14.3942 -28.073
rfingers 7.12502
rthumb 11.749 -57.7235
lclavicle 1.11319e-014 8.74653e-015
lhumerus -14.374 -11.9426 84.8526
lradius 45.0956
lwrist 18.3306
lhand -23.4835 -11.9933
lfingers 7.12502
lthumb 2.97615 17.9657
rfemur -37.7204 -13.7788 14.3342
rtibia 53.3048
rfoot -22.4308 -5.07656
rtoes 3.67824
lfemur -31.7917 8.01912 -15.1581
ltibia 47.7607
lfoot -19.79 -4.15851
ltoes -1.93355
457
root -0.207113 15.9092 2.50453 -393.198 98.6935 -401.388
lowerback 33.3237 0.0637549 -0.543214
upperback 7.23154 0.762765 -0.157421
thorax -9.06395 0.730394 -0.21608
lowerneck -25.1471 7.75808 3.57252
upperneck 25.0446 13.9774 -12.2527
head 13.9961 4.88996 -2.64335
rclavicle -3.73715e-014 -2.14687e-014
rhumerus -15.844 4.49576 -78.7778
rradius 50.7863
rwrist -19.1522
rhand -14.5213 -28.1181
rfingers 7.12502
rthumb 11.6264 -57.7755
lclavicle -3.73715e-014 -2.14687e-014
lhumerus -14.5036 -11.7991 84.9951
lradius 45.1105
lwrist 18.3136
lhand -23.5397 -11.7867
lfingers 7.12502
lthumb 2.9219 18.173
rfemur -37.2606 -14.167 14.2868
rtibia 53.2116
rfoot -22.5629 -5.12676
rtoes 3.62687
lfemur -31.5803 7.5704 -15.102
ltibia 47.6655
lfoot -19.7376 -4.21819
ltoes -1.86001
458
root -0.204659 15.912 2.49659 -392.934 98.6954 -401.131
lowerback 33.3203 0.00905981 -0.60176
upperback 7.18282 0.671346 -0.131389
thorax -9.1167 0.686381 -0.123854
lowerneck -25.2394 7.39251 3.15023
upperneck 25.0791 13.4459 -11.7795
head 13.8926 4.67495 -2.50021
rclavicle 3.33958e-014 2.70347e-014
rhumerus -15.8525 4.71941 -78.8703
rradius 50.7308
rwrist -19.2038
rhand -14.6367 -28.0176
rfingers 7.12502
rthumb 11.5151 -57.6813
lclavicle 3.33958e-014 2.70347e-014
lhumerus -14.6007 -11.5764 85.0168
lradius 45.0217
lwrist 18.1764
lhand -23.5152 -11.5971
lfingers 7.12502
lthumb 2.94557 18.3623
rfemur -37.2132 -14.2068 14.2824
rtibia 53.144
rfoot -22.594 -5.02804
rtoes 3.76262
lfemur -31.5845 7.48136 -15.0933
ltibia 47.6591
lfoot -19.7363 -4.14321
ltoes -2.22677
459
root -0.200065 15.9142 2.48888 -393.094 98.6004 -401.308
lowerback 33.2643 -0.00814448 -0.664664
upperback 7.12799 0.616933 -0.154581
thorax -9.15533 0.658587 -0.0942247
lowerneck -25.3098 7.06904 2.8357
upperneck 25.1788 12.927 -11.2555
head 13.822 4.47964 -2.35277
rclavicle 4.05521e-014 1.03368e-014
rhumerus -15.9721 4.86663 -79.0247
rradius 50.7814
rwrist -19.2223
rhand -14.5305 -28.3818
rfingers 7.12502
rthumb 11.6175 -58.0397
lclavicle 4.05521e-014 1.03368e-014
lhumerus -14.6973 -11.4131 84.9603
lradius 44.8862
lwrist 18.0317
lhand -23.3518 -11.8033
lfingers 7.12502
lthumb 3.10334 18.1538
rfemur -37.1939 -14.144 14.2981
rtibia 53.038
rfoot -22.5361 -5.01661
rtoes 3.6655
lfemur -31.5444 7.5112 -15.0785
ltibia 47.6236
lfoot -19.7465 -4.05467
ltoes -3.15703
460
root -0.19432 15.917 2.48384 -392.724 98.5244 -400.969
lowerback 33.1839 -0.0116244 -0.716255
upperback 7.10464 0.596619 -0.0944075
thorax -9.15076 0.647281 0.00531523
lowerneck -25.5257 6.71244 2.3979
upperneck 25.2401 12.3991 -10.7151
head 13.7607 4.26668 -2.17581
rclavicle -1.90833e-014 1.82882e-014
rhumerus -16.0759 4.95268 -79.0469
rradius 50.8607
rwrist -19.229
rhand -14.4248 -28.554
rfingers 7.12502
rthumb 11.7194 -58.2062
lclavicle -1.90833e-014 1.82882e-014
lhumerus -14.8273 -11.2902 85
lradius 44.9085
lwrist 17.93
lhand -23.1529 -12.0631
lfingers 7.12502
lthumb 3.29549 17.8912
rfemur -37.1724 -14.0974 14.3842
rtibia 52.9342
rfoot -22.4822 -5.07926
rtoes 3.54595
lfemur -31.5461 7.51102 -14.995
ltibia 47.6402
lfoot -19.7828 -4.04793
ltoes -3.09632
461
root -0.18627 15.9208 2.47588 -392.201 98.4312 -400.444
lowerback 33.0907 -0.0108441 -0.719153
upperback 7.12464 0.608331 0.0150171
thorax -9.09399 0.651539 0.119408
lowerneck -25.7618 6.28354 1.77705
upperneck 25.2112 11.8329 -10.1744
head 13.6587 4.02422 -1.97437
rclavicle 1.43125e-014 -2.14687e-014
rhumerus -16.0631 4.95929 -78.9441
rradius 50.8754
rwrist -19.2252
rhand -14.5233 -27.9575
rfingers 7.12502
rthumb 11.6245 -57.6151
lclavicle 1.43125e-014 -2.14687e-014
lhumerus -14.8761 -11.2743 85.1484
lradius 44.9376
lwrist 18.023
lhand -23.2847 -11.8134
lfingers 7.12502
lthumb 3.16811 18.1428
rfemur -37.0892 -14.0556 14.4795
rtibia 52.8315
rfoot -22.4698 -5.08618
rtoes 3.68821
lfemur -31.5057 7.52064 -14.8834
ltibia 47.6609
lfoot -19.8574 -4.10164
ltoes -1.88625
462
root -0.181522 15.9226 2.46486 -392.388 98.292 -400.66
lowerback 33.0536 0.0147734 -0.662989
upperback 7.09037 0.652344 0.0111283
thorax -9.11758 0.668454 0.0694752
lowerneck -25.8993 5.81716 1.24818
upperneck 25.1725 11.1845 -9.64965
head 13.5426 3.75791 -1.81216
rclavicle -1.07344e-014 8.74653e-015
rhumerus -16.0425 4.81481 -78.9325
rradius 50.7824
rwrist -19.1618
rhand -14.5963 -27.3072
rfingers 7.12502
rthumb 11.5541 -56.9687
lclavicle -1.07344e-014 8.74653e-015
lhumerus -14.8293 -11.494 85.2413
lradius 44.7849
lwrist 18.2859
lhand -23.5769 -11.4391
lfingers 7.12502
lthumb 2.88593 18.5212
rfemur -37.1072 -14.0028 14.5162
rtibia 52.7643
rfoot -22.3956 -5.0236
rtoes 3.74762
lfemur -31.5022 7.57544 -14.8614
ltibia 47.6881
lfoot -19.9261 -4.02694
ltoes -1.83023
463
root -0.180005 15.9238 2.45664 -392.769 98.1841 -401.061
lowerback 33.1391 0.0395846 -0.622087
upperback 7.02328 0.681461 -0.0659853
thorax -9.22384 0.679172 -0.0459207
lowerneck -26.1798 5.3525 0.904804
upperneck 25.2152 10.4772 -9.12385
head 13.504 3.47395 -1.68945
rclavicle -7.95139e-016 8.74653e-015
rhumerus -16.0013 4.71999 -79.0064
rradius 50.6331
rwrist -19.1563
rhand -14.6901 -26.8777
rfingers 7.12502
rthumb 11.4637 -56.5443
lclavicle -7.95139e-016 8.74653e-015
lhumerus -14.814 -11.6109 85.2414
lradius 44.6537
lwrist 18.3283
lhand -23.702 -11.438
lfingers 7.12502
lthumb 2.76513 18.5238
rfemur -37.1493 -13.9325 14.5225
rtibia 52.7444
rfoot -22.3022 -5.02687
rtoes 3.48219
lfemur -31.507 7.59979 -14.8698
ltibia 47.7266
lfoot -19.9709 -3.88616
ltoes -2.48795
464
root -0.177763 15.9242 2.44846 -393.063 98.0787 -401.334
lowerback 33.2113 0.0629162 -0.623149
upperback 7.01837 0.707103 -0.0962637
thorax -9.25698 0.691391 -0.0876968
lowerneck -26.4622 4.93228 0.652185
upperneck 25.1669 9.85592 -8.79829
head 13.4617 3.21363 -1.64092
rclavicle -3.18055e-015 1.43125e-014
rhumerus -15.8461 4.75436 -78.989
rradius 50.4482
rwrist -19.2571
rhand -14.8012 -26.7451
rfingers 7.12502
rthumb 11.3565 -56.4176
lclavicle -3.18055e-015 1.43125e-014
lhumerus -14.7832 -11.5214 85.2616
lradius 44.636
lwrist 18.2299
lhand -23.7393 -12.015
lfingers 7.12502
lthumb 2.72918 17.9473
rfemur -37.137 -13.7973 14.5235
rtibia 52.7424
rfoot -22.2477 -5.11568
rtoes 3.27273
lfemur -31.4656 7.60313 -14.8488
ltibia 47.7536
lfoot -20.0437 -3.80621
ltoes -2.1483
